<svg id="SvgjsSvg1075" width="288" height="288" xmlns="http://www.w3.org/2000/svg" version="1.1" xmlns:xlink="http://www.w3.org/1999/xlink" xmlns:svgjs="http://svgjs.com/svgjs"><defs id="SvgjsDefs1076"></defs><g id="SvgjsG1077"><svg xmlns="http://www.w3.org/2000/svg" enable-background="new 0 0 68 68" viewBox="0 0 68 68" width="288" height="288"><path fill="#415f91" d="M66,22.1921158v33.9501953c0,5.4399414-4.420166,9.8598633-9.8601074,9.8598633H11.8598633
				C6.4099121,66.0021744,2,61.5822525,2,56.1423111V22.1921158c0-5.4499512,4.4099121-9.8598623,9.8598633-9.8598623h44.2800293
				C61.579834,12.3322535,66,16.7421646,66,22.1921158z" class="svgShape colorabb8c2-0 selectable"></path><path fill="#d1e6fd" d="M66,16.3476791v33.9501953c0,5.4399414-4.420166,9.8598633-9.8601074,9.8598633H11.8598633
				C6.4099121,60.1577377,2,55.7378159,2,50.2978745V16.3476791c0-5.4499521,4.4099121-9.8598642,9.8598633-9.8598642h44.2800293
				C61.579834,6.4878149,66,10.897727,66,16.3476791z" class="svgShape colore8edf2-1 selectable"></path><path fill="#d1e6fd" d="M56.1398926,6.4878149H34.1098633v53.6699219h22.0300293C61.579834,60.1577377,66,55.7378159,66,50.2978745
				V16.3476791C66,10.897727,61.579834,6.4878149,56.1398926,6.4878149z" class="svgShape colorc4d3e4-2 selectable"></path><path fill="#415f91" d="M66,16.3476791v4.1401367H2v-4.1401367c0-5.4499521,4.4099121-9.8598642,9.8598633-9.8598642h44.2800293
				C61.579834,6.4878149,66,10.897727,66,16.3476791z" class="svgShape color454545-3 selectable"></path><path fill="#415f91" d="M66,16.3476791v4.1401367H34.1098633V6.4878149h22.0300293C61.579834,6.4878149,66,10.897727,66,16.3476791z
				" class="svgShape color2c2c2c-4 selectable"></path><path fill="#d1e6fd" d="M21.2797852 5.2878637v6.579834c0 1.8100586-1.4799805 3.2900391-3.2900391 3.2900391h-.0097656c-1.8100586 0-3.2900391-1.4799805-3.2900391-3.2900391v-6.579834c0-1.8100584 1.4799805-3.2900388 3.2900391-3.2900388h.0097656C19.7998047 1.9978249 21.2797852 3.4778054 21.2797852 5.2878637zM37.2949219 5.2878637v6.579834c0 1.8100586-1.4799805 3.2900391-3.2900391 3.2900391h-.0097656c-1.8100586 0-3.2900391-1.4799805-3.2900391-3.2900391v-6.579834c0-1.8100584 1.4799805-3.2900388 3.2900391-3.2900388h.0097656C35.8149414 1.9978249 37.2949219 3.4778054 37.2949219 5.2878637zM53.3100586 5.2878637v6.579834c0 1.8100586-1.4799805 3.2900391-3.2900391 3.2900391h-.0097656c-1.8100586 0-3.2900391-1.4799805-3.2900391-3.2900391v-6.579834c0-1.8100584 1.4799805-3.2900388 3.2900391-3.2900388h.0097656C51.8300781 1.9978249 53.3100586 3.4778054 53.3100586 5.2878637z" class="svgShape colorfabb53-5 selectable"></path><path fill="#d1e6fd" d="M18.2766113 2.0268776V15.128684c1.6748047-.1486816 3.0031738-1.5490723 3.0031738-3.2609863v-6.579834C21.2797852 3.5759499 19.951416 2.1755593 18.2766113 2.0268776zM34.1098633 2.0085671v13.1384277c1.7607422-.0571289 3.1850586-1.505127 3.1850586-3.2792969v-6.579834C37.2949219 3.513694 35.8706055 2.0654519 34.1098633 2.0085671zM50.1098633 2.0068581v13.1418457c1.7680664-.0490723 3.2001953-1.501709 3.2001953-3.2810059v-6.579834C53.3100586 3.5085671 51.8779297 2.0559304 50.1098633 2.0068581z" class="svgShape colorf99944-6 selectable"></path><g><circle cx="34" cy="40.471" r="14.4" fill="#415f91" class="svgShape color108be1-8 selectable"></circle><path fill="#415f91" d="M34.1772652,26.0800762v28.7825642c7.8703346-0.0960808,14.2229309-6.4982071,14.2229309-14.3912811
					S42.0475998,26.176157,34.1772652,26.0800762z" class="svgShape color0c6bc3-9 selectable"></path><path fill="#d1e6fd" d="M41.4530449,40.463707c0,1.1750755-0.9576187,2.1329079-2.1331215,2.1329079h-3.0560875v3.0563011
					c0,1.1576462-0.9314728,2.1069756-2.0895462,2.1329079h-0.0435753c-1.1755028,0-2.1331215-0.9578323-2.1331215-2.1329079
					v-3.0563011h-3.0473747c-1.1842155,0-2.1418362-0.9578323-2.1418362-2.1329079
					c0-0.5922165,0.2351017-1.1232109,0.6268635-1.5066833c0.3917637-0.391552,0.9227581-0.6266518,1.5149727-0.6266518h3.0473747
					v-3.0473747c0-1.1844292,0.9576187-2.1333313,2.1331215-2.1333313h0.0435753
					c0.5745735,0.0089264,1.0883484,0.2440262,1.4626808,0.6270752c0.3917618,0.3830452,0.6268654,0.9140434,0.6268654,1.5062561
					v3.0473747h3.0560875C40.4954262,38.3303719,41.4530449,39.2882042,41.4530449,40.463707z" class="svgShape colorffffff-10 selectable"></path><path fill="#d1e6fd" d="M41.4530449,40.463707c0,1.1750755-0.9576187,2.1329079-2.1331215,2.1329079h-3.0560875v3.0563011
					c0,1.1576462-0.9314728,2.1069756-2.0895462,2.1329079v-14.636158c0.5745735,0.0089264,1.0883484,0.2440262,1.4626808,0.6270752
					c0.3917618,0.3830452,0.6268654,0.9140434,0.6268654,1.5062561v3.0473747h3.0560875
					C40.4954262,38.3303719,41.4530449,39.2882042,41.4530449,40.463707z" class="svgShape colore8edf2-11 selectable"></path></g><path fill="#415f91" d="M8.0449219,32.1777573v11.8701172c0,1.2099609-0.9702148,2.1899414-2.1801758,2.1899414
		s-2.1899414-0.9799805-2.1899414-2.1899414V32.1777573c0-1.2099609,0.9799805-2.1899414,2.1899414-2.1899414
		c0.6000977,0,1.1501465,0.2399902,1.5400391,0.6401367C7.8046875,31.0278549,8.0449219,31.567894,8.0449219,32.1777573z" class="svgShape colorffffff-12 selectable"></path></svg></g></svg>